<svg xmlns="http://www.w3.org/2000/svg" viewBox="0 0 1600 900" role="img" aria-label="Escena mediterrània de Sitges al capvespre">
<defs>
 <linearGradient id="sky" x1="0" y1="0" x2="0" y2="1"><stop offset="0" stop-color="#ef9b76"/><stop offset=".42" stop-color="#ffd5a3"/><stop offset="1" stop-color="#8fc5ce"/></linearGradient>
 <linearGradient id="sea" x1="0" y1="0" x2="0" y2="1"><stop stop-color="#72b7c8"/><stop offset="1" stop-color="#387e9a"/></linearGradient>
 <linearGradient id="wood" x1="0" y1="0" x2="1" y2=".35"><stop stop-color="#8f5a38"/><stop offset=".5" stop-color="#a56d45"/><stop offset="1" stop-color="#744229"/></linearGradient>
 <radialGradient id="sun"><stop stop-color="#fff8d6"/><stop offset="1" stop-color="#ffd283" stop-opacity="0"/></radialGradient>
 <filter id="paperNoise" x="-10%" y="-10%" width="120%" height="120%"><feTurbulence type="fractalNoise" baseFrequency="0.7" numOctaves="2" seed="11" result="noise"/><feColorMatrix in="noise" type="saturate" values="0" result="mono"/><feComponentTransfer in="mono"><feFuncA type="table" tableValues="0 0.035"/></feComponentTransfer><feBlend in="SourceGraphic" in2="mono" mode="multiply"/></filter>
 <filter id="softShadow"><feDropShadow dx="0" dy="15" stdDeviation="14" flood-color="#32180b" flood-opacity=".25"/></filter>
</defs>
<rect width="1600" height="520" fill="url(#sky)"/>
<circle cx="1240" cy="145" r="140" fill="url(#sun)"/>
<path d="M0 295 C230 260 390 320 590 275 S970 250 1160 290 S1420 240 1600 270 V520 H0Z" fill="url(#sea)"/>
<path d="M0 356 C260 335 470 350 760 332 S1240 360 1600 327" fill="none" stroke="#d8eef0" stroke-width="6" opacity=".55"/>
<g filter="url(#softShadow)"><g><rect x="70" y="214" width="72" height="86" rx="3" fill="#fff1dc" stroke="#c88361" stroke-width="2"/><rect x="82" y="232" width="8" height="13" rx="2" fill="#67879a" opacity=".75"/><rect x="104" y="232" width="8" height="13" rx="2" fill="#67879a" opacity=".75"/><rect x="126" y="232" width="8" height="13" rx="2" fill="#67879a" opacity=".75"/><rect x="82" y="259" width="8" height="13" rx="2" fill="#67879a" opacity=".75"/><rect x="104" y="259" width="8" height="13" rx="2" fill="#67879a" opacity=".75"/><rect x="126" y="259" width="8" height="13" rx="2" fill="#67879a" opacity=".75"/></g><g><rect x="138" y="238" width="54" height="62" rx="3" fill="#f9e6cf" stroke="#c88361" stroke-width="2"/><rect x="150" y="256" width="8" height="13" rx="2" fill="#67879a" opacity=".75"/><rect x="172" y="256" width="8" height="13" rx="2" fill="#67879a" opacity=".75"/><rect x="150" y="283" width="8" height="13" rx="2" fill="#67879a" opacity=".75"/><rect x="172" y="283" width="8" height="13" rx="2" fill="#67879a" opacity=".75"/></g><g><rect x="188" y="195" width="68" height="105" rx="3" fill="#fff7e9" stroke="#c88361" stroke-width="2"/><rect x="200" y="213" width="8" height="13" rx="2" fill="#67879a" opacity=".75"/><rect x="222" y="213" width="8" height="13" rx="2" fill="#67879a" opacity=".75"/><rect x="200" y="240" width="8" height="13" rx="2" fill="#67879a" opacity=".75"/><rect x="222" y="240" width="8" height="13" rx="2" fill="#67879a" opacity=".75"/></g><g><rect x="252" y="225" width="58" height="75" rx="3" fill="#f3ddc5" stroke="#c88361" stroke-width="2"/><rect x="264" y="243" width="8" height="13" rx="2" fill="#67879a" opacity=".75"/><rect x="286" y="243" width="8" height="13" rx="2" fill="#67879a" opacity=".75"/><rect x="264" y="270" width="8" height="13" rx="2" fill="#67879a" opacity=".75"/><rect x="286" y="270" width="8" height="13" rx="2" fill="#67879a" opacity=".75"/></g><g><rect x="306" y="206" width="78" height="94" rx="3" fill="#fff1dc" stroke="#c88361" stroke-width="2"/><rect x="318" y="224" width="8" height="13" rx="2" fill="#67879a" opacity=".75"/><rect x="340" y="224" width="8" height="13" rx="2" fill="#67879a" opacity=".75"/><rect x="362" y="224" width="8" height="13" rx="2" fill="#67879a" opacity=".75"/><rect x="318" y="251" width="8" height="13" rx="2" fill="#67879a" opacity=".75"/><rect x="340" y="251" width="8" height="13" rx="2" fill="#67879a" opacity=".75"/><rect x="362" y="251" width="8" height="13" rx="2" fill="#67879a" opacity=".75"/></g><g><rect x="380" y="233" width="52" height="67" rx="3" fill="#f9e6cf" stroke="#c88361" stroke-width="2"/><rect x="392" y="251" width="8" height="13" rx="2" fill="#67879a" opacity=".75"/><rect x="414" y="251" width="8" height="13" rx="2" fill="#67879a" opacity=".75"/><rect x="392" y="278" width="8" height="13" rx="2" fill="#67879a" opacity=".75"/><rect x="414" y="278" width="8" height="13" rx="2" fill="#67879a" opacity=".75"/></g><g><rect x="428" y="188" width="65" height="112" rx="3" fill="#fff7e9" stroke="#c88361" stroke-width="2"/><rect x="440" y="206" width="8" height="13" rx="2" fill="#67879a" opacity=".75"/><rect x="462" y="206" width="8" height="13" rx="2" fill="#67879a" opacity=".75"/><rect x="440" y="233" width="8" height="13" rx="2" fill="#67879a" opacity=".75"/><rect x="462" y="233" width="8" height="13" rx="2" fill="#67879a" opacity=".75"/></g><g><rect x="489" y="222" width="60" height="78" rx="3" fill="#f3ddc5" stroke="#c88361" stroke-width="2"/><rect x="501" y="240" width="8" height="13" rx="2" fill="#67879a" opacity=".75"/><rect x="523" y="240" width="8" height="13" rx="2" fill="#67879a" opacity=".75"/><rect x="501" y="267" width="8" height="13" rx="2" fill="#67879a" opacity=".75"/><rect x="523" y="267" width="8" height="13" rx="2" fill="#67879a" opacity=".75"/></g><g><rect x="545" y="210" width="74" height="90" rx="3" fill="#fff1dc" stroke="#c88361" stroke-width="2"/><rect x="557" y="228" width="8" height="13" rx="2" fill="#67879a" opacity=".75"/><rect x="579" y="228" width="8" height="13" rx="2" fill="#67879a" opacity=".75"/><rect x="601" y="228" width="8" height="13" rx="2" fill="#67879a" opacity=".75"/><rect x="557" y="255" width="8" height="13" rx="2" fill="#67879a" opacity=".75"/><rect x="579" y="255" width="8" height="13" rx="2" fill="#67879a" opacity=".75"/><rect x="601" y="255" width="8" height="13" rx="2" fill="#67879a" opacity=".75"/></g><g><rect x="615" y="235" width="56" height="65" rx="3" fill="#f9e6cf" stroke="#c88361" stroke-width="2"/><rect x="627" y="253" width="8" height="13" rx="2" fill="#67879a" opacity=".75"/><rect x="649" y="253" width="8" height="13" rx="2" fill="#67879a" opacity=".75"/><rect x="627" y="280" width="8" height="13" rx="2" fill="#67879a" opacity=".75"/><rect x="649" y="280" width="8" height="13" rx="2" fill="#67879a" opacity=".75"/></g></g>
<!-- La Punta / church silhouette -->
<g transform="translate(1220 165)" filter="url(#softShadow)">
 <rect x="0" y="70" width="190" height="135" rx="5" fill="#f7e4c8" stroke="#b76a4d" stroke-width="3"/>
 <rect x="24" y="26" width="42" height="179" fill="#ecd1aa" stroke="#b76a4d" stroke-width="3"/>
 <path d="M18 27 L45 -20 L72 27Z" fill="#b95f43"/>
 <rect x="126" y="6" width="40" height="199" fill="#f0d8b5" stroke="#b76a4d" stroke-width="3"/>
 <path d="M120 7 L146 -40 L172 7Z" fill="#a9503b"/>
 <circle cx="45" cy="68" r="10" fill="#6b8090"/><circle cx="146" cy="47" r="10" fill="#6b8090"/>
 <path d="M70 205 V139 Q95 105 120 139 V205" fill="#8b604f"/>
</g>
<!-- Baluard -->
<path d="M1120 360 Q1300 335 1480 375 L1480 420 L1100 420Z" fill="#b98d6d" stroke="#8a634c" stroke-width="3"/>
<!-- small boats -->
<g opacity=".9"><path d="M980 360 l45 0 -10 12 -27 0z" fill="#fff0d8"/><path d="M1004 320 v42" stroke="#6a3f27" stroke-width="3"/><path d="M1004 323 l30 25 h-30z" fill="#f4d1a0"/></g>
<!-- table -->
<path d="M0 440 Q800 390 1600 445 V900 H0Z" fill="url(#wood)" filter="url(#paperNoise)"/>
<g opacity=".18" stroke="#4d2a17" stroke-width="3"><path d="M0 560 Q420 510 920 560 T1600 535"/><path d="M0 720 Q360 680 860 725 T1600 695"/><path d="M0 835 Q430 795 960 840 T1600 810"/></g>
<!-- peripheral leaves -->
<g fill="#435c3f" stroke="#2c422d" stroke-width="2" opacity=".96">
 <path d="M0 0 C120 60 150 150 90 240 C50 175 18 105 0 85Z"/>
 <ellipse cx="75" cy="78" rx="34" ry="14" transform="rotate(36 75 78)"/><ellipse cx="118" cy="128" rx="38" ry="15" transform="rotate(58 118 128)"/>
 <path d="M1600 0 C1490 70 1450 150 1508 240 C1554 170 1580 110 1600 82Z"/>
</g>
<!-- olives and glass -->
<g transform="translate(95 675)" filter="url(#softShadow)"><ellipse cx="80" cy="45" rx="90" ry="45" fill="#5e3422"/><ellipse cx="80" cy="36" rx="75" ry="31" fill="#d2a65d"/><g fill="#66733c" stroke="#3f4d2c" stroke-width="2"><circle cx="42" cy="31" r="15"/><circle cx="76" cy="41" r="16"/><circle cx="111" cy="29" r="15"/><circle cx="95" cy="51" r="14"/></g></g>
<g transform="translate(1430 650)" opacity=".9" filter="url(#softShadow)"><path d="M20 0 H95 L84 145 Q58 165 31 145Z" fill="#f4d69c" fill-opacity=".27" stroke="#f8ebd5" stroke-width="5"/><path d="M30 62 Q58 48 85 64 V137 Q58 150 33 137Z" fill="#b96d2f" fill-opacity=".8"/><path d="M28 57 Q58 72 88 58" fill="none" stroke="#fff2dd" stroke-width="3"/></g>
</svg>