<svg xmlns="http://www.w3.org/2000/svg" viewBox="0 0 120 160" role="img" aria-label="Talismà rosa de la Tecla, petxina de ceràmica">
  <defs>
    <linearGradient id="clay" x1=".95" y1="0" x2=".1" y2="1"><stop stop-color="#d6b29b"/><stop offset=".31" stop-color="#bc8a85"/><stop offset=".62" stop-color="#ac6570"/><stop offset="1" stop-color="#7c4d57"/></linearGradient>
    <linearGradient id="petal" x1="1" y1="0" x2="0" y2="1"><stop stop-color="#ebc9ab"/><stop offset=".45" stop-color="#c99a90"/><stop offset="1" stop-color="#a36774"/></linearGradient>
    <linearGradient id="foot" x1="1" y1="0" x2="0" y2="1"><stop stop-color="#c1a08a"/><stop offset=".48" stop-color="#9d7365"/><stop offset="1" stop-color="#735149"/></linearGradient>
    <clipPath id="shell"><path d="M19 76C8 65 12 47 27 43 22 28 37 16 51 24 58 11 78 13 83 28 99 24 112 40 103 54 118 63 113 82 101 88L83 120 85 137Q63 152 34 139L36 120 20 91C14 88 14 82 19 76Z"/></clipPath>
  </defs>
  <path d="M33 134Q62 144 85 133L91 143Q70 154 41 153L28 146Z" fill="url(#foot)" stroke="#65483e" stroke-width="2.2"/>
  <path d="M19 76C8 65 12 47 27 43 22 28 37 16 51 24 58 11 78 13 83 28 99 24 112 40 103 54 118 63 113 82 101 88L83 120 85 137Q63 152 34 139L36 120 20 91C14 88 14 82 19 76Z" fill="url(#clay)" stroke="#715153" stroke-width="2.7" stroke-linejoin="round"/>
  <path d="M56 27C66 18 76 24 78 33 74 57 67 81 62 116 53 92 47 54 56 27Z" fill="url(#petal)" opacity=".72"/>
  <g clip-path="url(#shell)" fill="none" stroke-linecap="round">
    <path d="M34 44C43 61 52 85 59 117M52 28c-3 22 1 56 7 89M83 32C74 58 67 85 62 117M102 59C87 77 70 103 63 120M20 79C38 87 50 104 59 122" stroke="#855561" stroke-width="3" opacity=".5"/>
    <path d="M37 41C46 61 55 91 60 116M54 26c-1 24 4 61 8 90M85 31C76 61 71 88 65 117M104 58C86 83 77 98 66 120M23 77C42 89 49 103 59 119" stroke="#e0b8a3" stroke-width="1.3" opacity=".6"/>
    <g fill="#77545a" stroke="none" opacity=".28"><circle cx="31" cy="62" r=".75"/><circle cx="43" cy="102" r=".6"/><circle cx="76" cy="55" r=".75"/><circle cx="91" cy="75" r=".7"/><circle cx="72" cy="129" r=".7"/><circle cx="43" cy="38" r=".6"/><circle cx="30" cy="88" r=".6"/></g>
    <path d="m37 50 3 5m47 19-3 5M75 35l-2 7M46 117l3 5" stroke="#ddbaa1" stroke-width="1" opacity=".55"/>
  </g>
  <path d="M83 30c10 0 17 10 14 17M28 41c-2-8 5-16 14-15M23 58c-7 4-7 11-3 16" fill="none" stroke="#efd2b0" stroke-width="1.4" opacity=".65" stroke-linecap="round"/>
  <path d="M49 128c5-8 15-9 21-2-7 2-13 6-17 10m2-6 7-4" fill="none" stroke="#e3c4a6" stroke-width="1.8" stroke-linecap="round" stroke-linejoin="round"/>
  <path d="M35 140q25 10 48-2M37 147q18 4 34 1" fill="none" stroke="#d1b493" stroke-width="1" opacity=".65"/>
</svg>
